# xmcd
#
# Track frame offsets:
#   150
#   15266
#   31334
#   49682
#   64915
#   83514
#   95450
#   109280
#   127354
#   141759
#   163941
#   188717
#   209414
#   223709
#   241219
#   262673
#   271490
#   285232
#   301372
#   315782
#   328468
#
# Disc length: 4705 seconds
#
# Revision: 0
# Processed by: cddbd v1.5.2PL0 Copyright (c) Steve Scherf et al.
# Submitted via: GXTranscoder 2.0.1939
#
DISCID=2b125f15
DTITLE=mix music - music mix
DYEAR=1900
DGENRE=narodna
TTITLE0=sedam dana
TTITLE1=muke su to brate
TTITLE2=löasdflk
TTITLE3=Kemal Malovcic - rekla si mi da ne volis zimu
TTITLE4=Moj golube
TTITLE5=sduhf
TTITLE6=frgsdv
TTITLE7=Mile Kitic - kraljica trotoara
TTITLE8=Moj sokole
TTITLE9=Mitar Miric - dovidjenja drustvo staro
TTITLE10=Saban Saulic - pozno bih te medj hiljadu zena
TTITLE11=Saban Saulic - Sneg je opet Snezana
TTITLE12=pusti me da zivim
TTITLE13=ne znam naziv pesme
TTITLE14=auch
TTITLE15=Uihf
TTITLE16=bggbad
TTITLE17=aewrgewra
TTITLE18=gheah
TTITLE19=aeb
TTITLE20=ntzhdg
EXTD=
EXTT0=
EXTT1=
EXTT2=
EXTT3=
EXTT4=
EXTT5=
EXTT6=
EXTT7=
EXTT8=
EXTT9=
EXTT10=
EXTT11=
EXTT12=
EXTT13=
EXTT14=
EXTT15=
EXTT16=
EXTT17=
EXTT18=
EXTT19=
EXTT20=
PLAYORDER=
